<?xml version="1.0" encoding="iso-8859-1"?>
<!-- Generator: Adobe Illustrator 19.0.0, SVG Export Plug-In . SVG Version: 6.00 Build 0)  -->
<svg version="1.1" id="Capa_1" xmlns="http://www.w3.org/2000/svg" xmlns:xlink="http://www.w3.org/1999/xlink" x="0px" y="0px"
	 viewBox="0 0 512 512" style="enable-background:new 0 0 512 512;" xml:space="preserve">
<rect x="199.531" y="228.774" style="fill:#F8B64C;" width="112.939" height="161.6"/>
<polygon style="fill:#E8EAEA;" points="356.096,511.995 257.152,390.417 254.848,390.417 114.549,511.995 "/>
<g>
	<polygon style="fill:#FF7058;" points="273.376,435.835 287.403,421.809 256,390.417 224.597,421.809 238.624,435.835 	"/>
	<polygon style="fill:#FF7058;" points="280.683,511.995 273.376,435.835 238.613,435.835 231.317,511.995 	"/>
</g>
<path style="fill:#F2F2F2;" d="M255.765,390.417c0,0,40.811,44.288,37.877,59.595l34.197-112.352l-14.208-33.003
	C313.621,304.657,315.029,341.553,255.765,390.417"/>
<path style="fill:#334A5E;" d="M284.373,511.995H512l-8.533-72.139c-2.773-23.349-18.101-43.296-39.957-51.968l-118.763-47.125
	c0,0-22.795-31.531-31.136-36.107c0,0,6.923,25.483,0,49.077C310.293,365.115,297.109,438.769,284.373,511.995"/>
<path style="fill:#40596B;" d="M285.344,511.995h44.811l38.389-82.325l-31.328-19.232l20.885-11.541l-14.997-60.384
	c-5.333-7.221-22.485-30.016-29.483-33.856c0,0,4.875,22.784,0,49.077C312,362.534,298.613,437.553,285.344,511.995"/>
<path style="fill:#F2F2F2;" d="M256.235,390.417c0,0-40.811,44.288-37.877,59.595L184.16,337.659l14.197-33.003
	C198.368,304.657,196.96,341.553,256.235,390.417"/>
<path style="fill:#334A5E;" d="M227.627,511.995c-12.747-73.227-25.92-146.88-29.259-158.261c-6.912-23.595,0-49.077,0-49.077
	c-8.331,4.576-31.136,36.107-31.136,36.107L48.491,387.889c-21.856,8.672-37.195,28.619-39.957,51.968L0,511.995H227.627z"/>
<path style="fill:#40596B;" d="M181.835,511.995h45.099c-13.184-74.485-26.581-149.525-28.565-158.261
	c-6.315-28.021,0-49.077,0-49.077c-6.987,3.84-24.149,26.635-29.483,33.856l-14.997,60.384l20.885,11.541l-31.328,19.232
	L181.835,511.995z"/>
<path style="fill:#FFD15C;" d="M159.851,60.209c-9.035,25.611-14.208,55.168-14.208,86.677c0,97.461,49.408,176.555,110.315,176.555
	s110.315-79.093,110.315-176.555c0-5.397-0.149-10.805-0.512-16.107c2.059-1.579,3.691-4.523,4.203-8.939
	c2.219-18.901,1.643-41.184-2.571-61.632C367.392,60.209,159.851,60.209,159.851,60.209z"/>
<g>
	<path style="fill:#40596B;" d="M268.128,274.022l-1.547-10.56l64.939-9.504c28.896-4.224,50.688-29.44,50.688-58.645h10.667
		c0,34.464-25.707,64.213-59.808,69.205L268.128,274.022z"/>
	<path style="fill:#40596B;" d="M284.352,266.513c0.864,6.603-6.037,12.949-15.424,14.187c-9.397,1.227-17.707-3.125-18.571-9.728
		c-0.864-6.592,6.027-12.949,15.435-14.176C275.179,255.558,283.488,259.91,284.352,266.513"/>
	<path style="fill:#40596B;" d="M151.339,190.811c5.291-24.352,5.728-45.696,12.416-71.541c0,0,130.859,29.259,185.067-23.691
		c0,0,16.917,53.952,13.056,95.232h15.136c2.976-50.709,3.925-89.109,3.925-89.109c-5.152-87.253-57.76-77.781-72.501-73.792
		c-13.323-27.957-162.784-69.472-177.387,73.792c0,0,0.885,38.411,3.851,89.109H151.339z"/>
</g>
<g>
	<path style="fill:#54C0EB;" d="M129.867,175.11v-20.981c0-70.891,57.675-128.565,128.587-128.565
		c70.891,0,128.565,57.675,128.565,128.565v20.981h19.061v-20.981c0-81.397-66.229-147.627-147.627-147.627
		c-81.419,0-147.648,66.229-147.648,147.627v20.981H129.867z"/>
	<path style="fill:#54C0EB;" d="M147.872,135.046c-20.736,1.611-37.077,18.912-37.077,40.053s16.331,38.443,37.077,40.053V135.046z"
		/>
</g>
<path style="fill:#E8EAEA;" d="M151.904,222.374c-4.181,0-7.573-3.392-7.573-7.573v-79.381c0-4.181,3.392-7.573,7.573-7.573
	c4.192,0,7.584,3.392,7.584,7.573v79.381C159.488,218.971,156.096,222.374,151.904,222.374"/>
<path style="fill:#54C0EB;" d="M369.003,135.046c20.736,1.611,37.077,18.912,37.077,40.053s-16.331,38.443-37.077,40.053V135.046z"
	/>
<path style="fill:#E8EAEA;" d="M364.971,222.374c-4.192,0-7.573-3.392-7.573-7.573v-79.381c0-4.181,3.381-7.573,7.573-7.573
	c4.181,0,7.573,3.392,7.573,7.573v79.381C372.544,218.971,369.141,222.374,364.971,222.374"/>
<g>
</g>
<g>
</g>
<g>
</g>
<g>
</g>
<g>
</g>
<g>
</g>
<g>
</g>
<g>
</g>
<g>
</g>
<g>
</g>
<g>
</g>
<g>
</g>
<g>
</g>
<g>
</g>
<g>
</g>
</svg>
