<svg id="Layer_1" enable-background="new 0 0 256 256" height="512" viewBox="0 0 256 256" width="512" xmlns="http://www.w3.org/2000/svg"><g id="Layer_40"><g><g fill="#edf4fc"><path d="m120.5 200.9c0 1.7-.2 3.3-.7 4.9h50.2v-9.8h-50.2c.5 1.6.7 3.2.7 4.9z"/><path d="m44.6 200.9c0-1.7.2-3.3.7-4.9h-14.9c-1.1 0-2 .9-2 2v5.8c0 1.1.9 2 2 2h14.9c-.5-1.6-.7-3.3-.7-4.9z"/><path d="m188.5 200.9c0-1.7.2-3.3.7-4.9h-19.1v9.8h19.1c-.4-1.6-.7-3.3-.7-4.9z"/><path d="m251.5 196h-25.8c.9 3.2.9 6.6 0 9.8h25.8c1.1 0 2-.9 2-2v-5.8c0-1.1-.9-2-2-2z"/></g><path d="m246.3 155.8-35-35c-1.6-1.6-3.9-2.6-6.2-2.6h-35.1v77.8h19.1c2.7-10.1 13-16 23.1-13.3 6.5 1.7 11.6 6.8 13.3 13.3h23.5v-33.4c.1-2.6-.9-5-2.7-6.8z" fill="#3caadc"/><circle cx="63.5" cy="200.9" fill="#29589f" r="18.9"/><circle cx="101.7" cy="200.9" fill="#29589f" r="18.9"/><circle cx="207.4" cy="200.9" fill="#29589f" r="18.9"/><path d="m126.5 101.3 9.7 34.4 48.6-34.4z" fill="#edb311"/><path d="m136.2 135.7-9.6-34.4h-76.3l-5-17.4h-12.6v112.1h12.6c2.7-10.1 13-16 23.1-13.3 6.5 1.7 11.6 6.8 13.3 13.3h1.7c2.7-10.1 13-16 23.1-13.3 6.5 1.7 11.6 6.8 13.3 13.3h50.2v-84z" fill="#fc657e"/><path d="m35.4 49.7 14.9 51.6h134.5l-14.8-51.6z" fill="#f5c84c"/><path d="m218.2 157.2c0-2.4 1.9-4.3 4.3-4.3h3.7v-1.8l-22-22h-23.2v31.6h37.2z" fill="#70d6f9"/><path d="m222.6 152.9h8.5c2.4 0 4.3 1.9 4.3 4.3v7.2c0 2.4-1.9 4.3-4.3 4.3h-8.5c-2.4 0-4.3-1.9-4.3-4.3v-7.2c-.1-2.4 1.9-4.3 4.3-4.3z" fill="#edf4fc"/><path d="m240.9 183c-3.6 0-6.5 2.9-6.5 6.5s2.9 6.5 6.5 6.5h8.2v-13z" fill="#f5c84c"/><circle cx="63.5" cy="200.9" fill="#5290db" r="9.7"/><circle cx="101.7" cy="200.9" fill="#5290db" r="9.7"/><circle cx="207.4" cy="200.9" fill="#5290db" r="9.7"/><path d="m32.7 148.2h137.4v12.5h-137.4z" fill="#f5c84c"/><path d="m198.8 160.8 18.6-18.6-8.9-8.8-27.3 27.4z" fill="#9be5f9"/><circle cx="18.1" cy="166.8" fill="#f5c84c" r="3.1"/><circle cx="133.1" cy="36.8" fill="#fc657e" r="3.1"/><path d="m12.9 140.9h-2.1v-2.1c0-1.6-1.3-2.9-2.9-2.9s-2.9 1.3-2.9 2.9v2.1h-2.1c-1.6 0-2.9 1.3-2.9 2.9s1.3 2.9 2.9 2.9h2.1v2.1c0 1.6 1.3 2.9 2.9 2.9s2.9-1.3 2.9-2.9v-2.1h2.1c1.6 0 2.9-1.3 2.9-2.9s-1.3-2.9-2.9-2.9z" fill="#70d6f9"/><path d="m220.3 78.4c-4.3-.8-7.8-4.1-8.6-8.5 0-.1-.1-.2-.2-.2s-.1.1-.2.2c-.9 4.3-4.3 7.7-8.6 8.5-.1 0-.2.1-.2.2s.1.1.2.2c4.3.8 7.8 4.1 8.6 8.5 0 .1.1.2.2.2s.1-.1.2-.2c.9-4.3 4.3-7.7 8.6-8.5.1 0 .2-.1.2-.2s-.1-.2-.2-.2z" fill="#f5c84c"/><circle cx="201.9" cy="97.9" fill="#87d147" r="3.1"/><path d="m80.1 75.6 5.8-9.5c.3-.5.1-1.1-.3-1.4-.2-.1-.3-.1-.5-.1h-3c-.4 0-.7.2-.9.5l-3.7 6.3-4-6.4c-.2-.3-.5-.5-.8-.5h-3.1c-.4 0-.7.2-.9.5-.2-.3-.5-.6-.9-.6h-11c-.6 0-1 .4-1 1v19.9c0 .6.4 1 1 1h11c.4 0 .8-.3.9-.7.1.4.5.7 1 .7h3c.4 0 .7-.2.9-.5l3.7-6.5 4.1 6.5c.2.3.5.5.8.5h3.1c.6 0 1-.4 1-1 0-.2-.1-.4-.2-.5zm-11.3 9.4s0 .1 0 0v-1.6c0-.6-.4-1-1-1h-7.4v-5h6.6c.6 0 1-.4 1-1v-2c0-.6-.4-1-1-1h-6.6v-4.8h7.4c.6 0 1-.4 1-1v-1.5l5.8 9.2z"/><path d="m94.2 64.6h-6.3c-.6 0-1 .4-1 1v19.9c0 .6.4 1 1 1h2.6c.6 0 1-.4 1-1v-7h2.8c2.1.1 4.1-.5 5.7-1.8 1.4-1.3 2.2-3.2 2.1-5.1.1-1.9-.6-3.8-2-5.1-1.7-1.4-3.8-2-5.9-1.9zm-2.8 4.1h2.6c1-.1 1.9.2 2.7.7.5.6.8 1.3.7 2.1.1.8-.2 1.5-.7 2.1-.8.6-1.7.8-2.7.7h-2.5v-5.6z"/><path d="m113.7 78c1.2-.3 2.2-1 3-1.8 1.1-1.3 1.7-2.9 1.6-4.6 0-4-2.6-6.9-7.8-6.9h-6.5c-.6 0-1 .4-1 1v19.9c0 .6.4 1 1 1h2.6c.6 0 1-.4 1-1v-7.1h1.3l4.9 7.7c.2.3.5.5.8.5h2.9c.6 0 1-.4 1-1 0-.2-.1-.4-.2-.6zm-6.1-9.2h2.8c3 0 3.4 1.4 3.4 2.8s-.4 2.8-3.4 2.8h-2.8z"/><path d="m131.5 64.6h-11c-1.9 0-.6 2.2-1 20.9 0 .6.4 1 1 1h11c.6 0 1-.4 1-1v-2.1c0-.6-.4-1-1-1h-7.4v-5c5.1-.3 7.6.7 7.6-1v-2c0-.6-.4-1-1-1h-6.6v-4.8h7.4c.6 0 1-.4 1-1v-2.1c0-.5-.5-.9-1-.9z"/><path d="m145 74.7c-2.2-1-3.8-1.3-5.6-2.1-.9-.3-1.5-1.1-1.5-2.1 0-1.5 1-2.1 2.4-2.1 1.4-.1 2.6.8 2.9 2.2.1.5.5.8 1 .8h2.8c.6 0 1-.4 1-1v-.1c-.4-3.3-3-5.9-7.7-5.9-4.2 0-7.2 2.4-7.2 6.2-.1 2.3 1.2 4.5 3.3 5.5s4 1.4 5.6 2.1c1.3.4 1.9 1.8 1.5 3-.1.3-.3.6-.5.8-1.5 1.1-3.6.7-4.7-.8-.2-.4-.4-.8-.4-1.2-.1-.5-.5-.9-1-.9h-2.7c-.6 0-1 .4-1 1v.1c.1 1.2.5 2.4 1.2 3.4 3.1 4.2 10.7 4.2 13.1-.1 1.7-3 .7-6.9-2.3-8.6 0-.1-.1-.1-.2-.2z"/><path d="m161.1 74.7c-2.2-1-3.8-1.3-5.6-2.1-.9-.3-1.5-1.1-1.5-2.1 0-1.5 1-2.1 2.4-2.1 1.4-.1 2.6.8 2.9 2.2.1.5.5.8 1 .8h2.8c.6 0 1-.4 1-1v-.1c-.4-3.3-3-5.9-7.7-5.9-4.2 0-7.2 2.4-7.2 6.2-.1 2.3 1.2 4.5 3.3 5.5s4 1.4 5.6 2.1c1.3.4 1.9 1.8 1.5 3-.1.3-.3.6-.5.8-1.3 1.3-4.9.6-5.1-2-.1-.5-.5-.9-1-.9h-2.7c-1.8 0-.8 3 .3 4.5 2.4 3.3 7.7 3.9 10.7 2.2 3.1-1.7 4.2-5.5 2.5-8.6-.7-1-1.6-1.9-2.7-2.5z"/><path d="m251.6 193.5v-30.9c0-3.2-1.3-6.3-3.5-8.6l-35-35c-2.1-2.1-5-3.3-8-3.3h-32.6v-2.7l13.6-9.6c.9-.6 1.2-1.7 1-2.7l-14.8-51.6c-.3-1.1-1.3-1.8-2.4-1.8h-134.5c-1.4 0-2.5 1.1-2.5 2.5 0 .2 0 .5.1.7l8.9 31h-9.2c-1.4 0-2.5 1.1-2.5 2.5v109.6c-2.4.1-4.4 2.1-4.4 4.5v5.8c0 2.5 2 4.5 4.5 4.5h13.1c4.1 11.1 16.3 16.7 27.4 12.7 5.1-1.9 9.3-5.6 11.7-10.5 5.3 10.5 18.1 14.8 28.7 9.5 4.9-2.4 8.6-6.6 10.5-11.7h65.7c4.1 11.1 16.3 16.7 27.4 12.7 5.9-2.2 10.5-6.8 12.7-12.7h24c2.5 0 4.5-2 4.5-4.5v-5.9c0-2.4-1.9-4.4-4.4-4.5zm-14.7-4c0-2.2 1.8-4 4-4h5.7v8h-5.7c-2.2 0-4-1.8-4-4zm-31.7-68.8c1.7 0 3.3.7 4.4 1.8l35 35c1.3 1.3 2.1 3.1 2.1 5v17.9h-5.7c-5 0-9 4-9 9 0 1.4.3 2.8.9 4h-5.4c-6.9-18.8-33.3-18.5-40.1 0h-14.8v-72.8zm-103.5 58.8c-8.1 0-15.4 4.6-19.1 11.8-5.3-10.5-18.1-14.8-28.7-9.5-4.8 2.4-8.6 6.6-10.4 11.7h-8.2v-30.2h132.4v30.2h-45.9c-3.2-8.4-11.2-14-20.1-14zm-66.5-28.8h132.4v7.5h-132.4zm102.4-19.1-7.8-27.8h47.1zm30.5-79.4 13.4 46.6h-129.4l-4.5-15.6-8.9-31zm-124.7 34.2 4.5 15.6c.3 1.1 1.3 1.8 2.4 1.8h74.4l9.1 32.6c.4 1.3 1.8 2.1 3.1 1.7.3-.1.5-.2.7-.3l30-21v29h-132.4v-59.4zm-1.1 116.9h-11.4v-4.8h11.4c-.2 1.6-.2 3.2 0 4.8zm21.2 14c-9.1 0-16.4-7.3-16.4-16.4s7.3-16.4 16.4-16.4 16.4 7.3 16.4 16.4c0 9-7.4 16.3-16.4 16.4zm38.2 0c-9.1 0-16.4-7.3-16.4-16.4s7.3-16.4 16.4-16.4c7.4 0 13.9 5 15.8 12.1.4 1.4.6 2.8.6 4.3-.1 9-7.4 16.4-16.4 16.4zm21.2-18.8h44.7v4.8h-44.7c.2-1.6.2-3.2 0-4.8zm63.3 4.8h-13.6v-4.8h13.6c-.2 1.6-.3 3.2 0 4.8zm21.2 14c-9.1 0-16.4-7.3-16.4-16.4s7.3-16.4 16.4-16.4c9 0 16.4 7.3 16.4 16.4 0 9-7.3 16.3-16.4 16.4zm43.6-14h-22.3c.2-1.6.2-3.2 0-4.8h22.3z"/><path d="m183.2 167.5c-1.4 0-2.5 1.1-2.5 2.5v4.4c0 1.4 1.1 2.5 2.5 2.5s2.5-1.1 2.5-2.5v-4.4c0-1.4-1.1-2.5-2.5-2.5z"/><path d="m2.5 57.7h16.2c1.4 0 2.5-1.1 2.5-2.5s-1.1-2.5-2.5-2.5h-16.2c-1.4 0-2.5 1.1-2.5 2.5s1.1 2.5 2.5 2.5z"/><path d="m23.7 67.3h-16.2c-1.4 0-2.5 1.1-2.5 2.5s1.1 2.5 2.5 2.5h16.2c1.4 0 2.5-1.1 2.5-2.5s-1.1-2.5-2.5-2.5z"/><path d="m181 163.3h34.7v1.2c0 3.8 3.1 6.8 6.8 6.8h8.5c3.8 0 6.8-3.1 6.8-6.8v-7.2c0-3.8-3.1-6.8-6.8-6.8h-2.4c-.1-.4-.3-.8-.6-1.1-5.3-5.3-16.6-16.6-22-22-.5-.5-1.1-.7-1.8-.7h-23.2c-1.4 0-2.5 1.1-2.5 2.5v31.6c0 1.3 1.1 2.5 2.5 2.5zm6.2-5 21.3-21.3 5.3 5.3-16 16zm45.7-1.1v7.2c0 1-.8 1.8-1.8 1.8h-8.5c-1 0-1.8-.8-1.8-1.8v-7.2c0-1 .8-1.8 1.8-1.8h8.5c.9 0 1.8.8 1.8 1.8zm-17.2 0v1h-10.9l12.5-12.5 4.7 4.7c-3.5.3-6.3 3.3-6.3 6.8zm-12.5-25.6 1.8 1.8-21.5 21.5v-23.3z"/><path d="m63.5 188.7c-6.7 0-12.2 5.5-12.2 12.2s5.5 12.2 12.2 12.2 12.2-5.5 12.2-12.2c0-6.8-5.5-12.2-12.2-12.2zm0 19.4c-4 0-7.2-3.2-7.2-7.2s3.2-7.2 7.2-7.2 7.2 3.2 7.2 7.2-3.2 7.2-7.2 7.2z"/><path d="m101.7 188.7c-6.7 0-12.2 5.5-12.2 12.2s5.5 12.2 12.2 12.2 12.2-5.5 12.2-12.2c0-6.8-5.5-12.2-12.2-12.2zm0 19.4c-4 0-7.2-3.2-7.2-7.2s3.2-7.2 7.2-7.2 7.2 3.2 7.2 7.2-3.3 7.2-7.2 7.2z"/><path d="m207.4 188.7c-6.7 0-12.2 5.5-12.2 12.2s5.5 12.2 12.2 12.2 12.2-5.5 12.2-12.2c0-6.8-5.4-12.2-12.2-12.2zm0 19.4c-4 0-7.2-3.2-7.2-7.2s3.2-7.2 7.2-7.2 7.2 3.2 7.2 7.2-3.2 7.2-7.2 7.2z"/></g></g></svg>